<?xml version="1.0" standalone="no"?>
<!DOCTYPE svg PUBLIC "-//W3C//DTD SVG 20010904//EN"
 "http://www.w3.org/TR/2001/REC-SVG-20010904/DTD/svg10.dtd">
<svg version="1.0" xmlns="http://www.w3.org/2000/svg"
 width="1264.000000pt" height="1264.000000pt" viewBox="0 0 1264.000000 1264.000000"
 preserveAspectRatio="xMidYMid meet">
<metadata>
Created by potrace 1.11, written by Peter Selinger 2001-2013
</metadata>
<g transform="translate(0.000000,1264.000000) scale(0.100000,-0.100000)"
fill="#000000" stroke="none">
<path d="M0 8120 l0 -3010 1799 0 1800 0 -5 -26 c-2 -14 -6 -48 -9 -77 -2 -29
-5 -52 -5 -52 -1 0 -3 -11 -5 -25 -4 -28 -10 -68 -19 -117 -3 -18 -8 -48 -12
-65 -3 -18 -9 -51 -15 -73 -5 -22 -12 -51 -15 -65 -9 -41 -41 -161 -62 -227
-11 -34 -17 -65 -14 -68 3 -3 1 -5 -4 -5 -6 0 -18 -32 -29 -70 -11 -39 -23
-70 -27 -70 -4 0 -8 -9 -8 -20 0 -12 -9 -37 -19 -58 -10 -20 -19 -39 -19 -42
0 -3 -7 -22 -16 -44 -9 -21 -16 -40 -16 -41 0 -15 -148 -321 -178 -370 -14
-22 -24 -41 -23 -43 2 -2 -29 -57 -68 -122 -39 -66 -71 -122 -71 -125 0 -3 -5
-11 -10 -18 -22 -27 -100 -149 -100 -158 0 -5 -4 -9 -9 -9 -5 0 -12 -8 -16
-19 -3 -10 -17 -31 -30 -47 -13 -15 -22 -30 -20 -32 2 -2 -5 -14 -16 -26 -12
-11 -46 -57 -77 -101 -31 -44 -63 -86 -70 -95 -12 -14 -32 -39 -107 -136 -53
-68 -182 -217 -265 -307 -89 -96 -264 -269 -345 -342 -37 -33 -83 -75 -103
-93 -19 -19 -46 -40 -58 -49 -13 -8 -21 -19 -18 -24 3 -5 1 -9 -5 -9 -6 0 -24
-14 -41 -30 -17 -17 -33 -30 -35 -30 -3 0 -27 -21 -54 -48 -26 -26 -81 -76
-121 -112 -40 -36 -86 -77 -103 -92 l-31 -28 1364 0 c1320 0 1363 1 1379 19 9
10 34 40 56 67 22 27 52 61 67 75 15 15 24 30 21 33 -3 3 2 8 11 12 9 3 16 10
16 15 0 4 11 20 24 34 14 15 78 95 142 178 65 84 123 157 129 162 7 6 14 15
16 21 2 6 14 24 27 40 21 27 81 108 120 163 9 13 22 29 27 35 6 7 15 19 20 28
6 9 28 42 51 75 133 192 174 254 174 263 0 6 7 13 15 16 8 4 12 10 9 15 -3 5
0 9 5 9 6 0 11 5 11 11 0 6 10 24 23 39 12 16 33 47 47 71 14 23 35 57 47 75
12 18 19 35 15 38 -3 3 -1 6 5 6 6 0 16 14 23 30 7 17 16 30 21 30 4 0 11 10
15 23 4 12 15 33 25 46 10 13 17 27 14 31 -3 4 2 10 10 14 8 3 15 10 15 15 0
5 25 52 55 105 30 52 55 99 55 104 0 5 9 17 20 27 11 10 20 24 20 32 0 17 41
95 55 105 6 4 7 8 4 8 -4 0 18 46 47 102 30 57 54 108 54 114 0 7 5 14 11 16
5 2 11 10 13 18 4 20 12 39 91 215 7 17 22 53 33 80 10 28 23 59 27 70 5 11 9
22 10 25 1 3 5 13 8 23 14 37 20 52 23 62 2 6 19 57 39 115 20 58 38 113 40
123 2 9 7 22 10 28 4 5 8 20 10 32 2 12 9 40 15 62 17 63 21 78 26 105 3 14
10 45 15 70 16 69 18 82 25 130 3 25 7 47 9 50 2 3 6 34 10 70 4 36 10 74 13
85 4 11 8 1358 9 2993 l3 2972 -3010 0 -3010 0 0 -3010z"/>
<path d="M6620 8120 l0 -3010 1799 0 1800 0 -4 -32 c-12 -97 -17 -136 -22
-163 -2 -16 -6 -39 -7 -50 -2 -11 -6 -36 -9 -55 -4 -19 -9 -46 -11 -60 -3 -20
-25 -112 -51 -220 -14 -58 -49 -174 -65 -218 -11 -28 -20 -55 -21 -60 -3 -15
-12 -40 -45 -125 -19 -49 -34 -95 -34 -103 0 -8 -4 -14 -10 -14 -5 0 -10 -7
-10 -15 0 -8 -13 -42 -29 -75 -16 -33 -28 -60 -26 -60 4 0 -149 -302 -182
-361 -11 -19 -42 -72 -69 -117 -27 -45 -56 -94 -64 -109 -26 -46 -94 -148
-102 -151 -5 -2 -8 -8 -8 -13 0 -10 -62 -103 -72 -107 -5 -2 -8 -10 -8 -18 0
-8 -3 -14 -7 -14 -5 0 -21 -21 -38 -45 -16 -25 -33 -45 -37 -45 -5 0 -8 -7 -8
-15 0 -8 -4 -15 -8 -15 -4 0 -16 -14 -27 -32 -18 -31 -49 -69 -87 -110 -10
-10 -16 -18 -13 -18 5 0 -5 -12 -101 -124 -33 -39 -71 -84 -85 -100 -87 -103
-320 -341 -438 -446 -40 -36 -90 -81 -110 -100 -21 -19 -78 -71 -126 -115 -49
-44 -100 -91 -115 -105 -15 -14 -58 -53 -98 -88 -39 -35 -83 -75 -97 -88 l-26
-24 1363 0 1363 0 24 31 c14 17 37 45 53 61 15 17 28 32 28 35 0 3 9 15 20 27
40 44 76 86 100 117 14 18 40 51 58 73 50 62 51 63 142 181 81 104 107 140
255 345 104 143 255 369 255 380 0 5 5 10 10 10 6 0 10 6 10 14 0 8 4 16 8 18
4 2 26 32 47 68 21 36 41 67 44 70 4 3 40 61 81 130 92 152 94 157 116 200 10
19 20 37 23 40 4 3 13 19 22 35 9 17 30 55 46 85 17 30 42 80 58 110 15 30 31
62 35 70 40 72 114 227 112 233 -1 4 3 7 9 7 5 0 8 4 4 9 -3 5 -1 12 5 16 6 4
8 11 5 16 -4 5 -1 9 4 9 6 0 11 4 11 9 0 5 14 39 30 74 17 36 30 68 30 72 0 3
9 25 19 48 38 84 49 115 43 121 -3 3 -1 6 5 6 5 0 10 6 10 13 1 6 20 64 42
127 39 108 105 334 115 390 3 14 5 25 6 25 1 0 3 7 5 15 2 8 6 26 9 40 3 14 7
35 10 46 5 23 16 87 20 119 12 82 19 134 24 160 3 17 7 1368 9 3003 l3 2972
-3010 0 -3010 0 0 -3010z"/>
</g>
</svg>
